<mxfile host="Electron" modified="2023-05-28T09:16:26.907Z" agent="Mozilla/5.0 (Macintosh; Intel Mac OS X 10_15_7) AppleWebKit/537.36 (KHTML, like Gecko) draw.io/21.2.1 Chrome/112.0.5615.87 Electron/24.1.2 Safari/537.36" etag="i-s7uo8sWn9nfCEWY_mb" version="21.2.1" type="device">
  <diagram id="cZ3s3H5S3Yk4pRQaYe_S" name="Page-1">
    <mxGraphModel dx="1968" dy="1692" grid="1" gridSize="10" guides="1" tooltips="1" connect="1" arrows="1" fold="1" page="0" pageScale="1" pageWidth="827" pageHeight="1169" math="1" shadow="0">
      <root>
        <mxCell id="0" />
        <mxCell id="1" parent="0" />
        <mxCell id="K_pVn9FSK5HUyFnE74xe-9" value="" style="rounded=1;whiteSpace=wrap;html=1;fontFamily=Times New Roman;fontSize=28;fillColor=#f5f5f5;strokeColor=none;fontColor=#333333;" parent="1" vertex="1">
          <mxGeometry x="655" y="70" width="130" height="550" as="geometry" />
        </mxCell>
        <mxCell id="K_pVn9FSK5HUyFnE74xe-7" value="" style="rounded=1;whiteSpace=wrap;html=1;fontFamily=Times New Roman;fontSize=28;fillColor=#f5f5f5;strokeColor=none;fontColor=#333333;" parent="1" vertex="1">
          <mxGeometry x="475" y="70" width="130" height="550" as="geometry" />
        </mxCell>
        <mxCell id="K_pVn9FSK5HUyFnE74xe-4" value="" style="rounded=1;whiteSpace=wrap;html=1;fontFamily=Times New Roman;fontSize=28;fillColor=#f5f5f5;strokeColor=none;fontColor=#333333;" parent="1" vertex="1">
          <mxGeometry x="294" y="70" width="130" height="550" as="geometry" />
        </mxCell>
        <mxCell id="K_pVn9FSK5HUyFnE74xe-2" value="" style="rounded=1;whiteSpace=wrap;html=1;fontFamily=Times New Roman;fontSize=28;fillColor=#f5f5f5;strokeColor=none;fontColor=#333333;" parent="1" vertex="1">
          <mxGeometry x="115" y="70" width="130" height="550" as="geometry" />
        </mxCell>
        <mxCell id="JjDiljl0blwQCyaUuijC-1" value="&lt;font style=&quot;font-size: 40px&quot;&gt;$$S_1^3$$&lt;/font&gt;" style="rounded=0;whiteSpace=wrap;html=1;strokeWidth=3;fillColor=#dae8fc;strokeColor=#FFFFFF;fontSize=40;fontFamily=Times New Roman;" parent="1" vertex="1">
          <mxGeometry x="120" y="80" width="120" height="130" as="geometry" />
        </mxCell>
        <mxCell id="JjDiljl0blwQCyaUuijC-2" value="&lt;font style=&quot;font-size: 40px&quot;&gt;4&lt;/font&gt;" style="rounded=0;whiteSpace=wrap;html=1;strokeWidth=3;fillColor=#fff2cc;strokeColor=#FFFFFF;fontSize=40;fontFamily=Times New Roman;" parent="1" vertex="1">
          <mxGeometry x="160" y="171.89" width="40" height="40" as="geometry" />
        </mxCell>
        <mxCell id="JjDiljl0blwQCyaUuijC-29" value="" style="endArrow=none;dashed=1;html=1;strokeWidth=5;rounded=0;exitX=0.5;exitY=0;exitDx=0;exitDy=0;entryX=0.5;entryY=1;entryDx=0;entryDy=0;fillColor=#dae8fc;strokeColor=#FF3333;fontSize=28;fontFamily=Times New Roman;" parent="1" source="A9f6wP4NNAT2vkbB0bSe-17" target="A9f6wP4NNAT2vkbB0bSe-35" edge="1">
          <mxGeometry width="50" height="50" relative="1" as="geometry">
            <mxPoint x="200" y="460" as="sourcePoint" />
            <mxPoint x="200" y="380" as="targetPoint" />
          </mxGeometry>
        </mxCell>
        <mxCell id="JjDiljl0blwQCyaUuijC-30" value="" style="endArrow=none;dashed=1;html=1;strokeWidth=5;rounded=0;exitX=0.5;exitY=0;exitDx=0;exitDy=0;entryX=0.5;entryY=1;entryDx=0;entryDy=0;fillColor=#dae8fc;strokeColor=#000000;fontSize=28;fontFamily=Times New Roman;" parent="1" source="A9f6wP4NNAT2vkbB0bSe-19" target="A9f6wP4NNAT2vkbB0bSe-34" edge="1">
          <mxGeometry width="50" height="50" relative="1" as="geometry">
            <mxPoint x="340" y="460" as="sourcePoint" />
            <mxPoint x="340" y="380" as="targetPoint" />
          </mxGeometry>
        </mxCell>
        <mxCell id="JjDiljl0blwQCyaUuijC-31" value="" style="endArrow=none;dashed=1;html=1;strokeWidth=5;rounded=0;exitX=0.5;exitY=0;exitDx=0;exitDy=0;entryX=0.5;entryY=1;entryDx=0;entryDy=0;fillColor=#dae8fc;strokeColor=#000000;fontSize=28;fontFamily=Times New Roman;" parent="1" source="A9f6wP4NNAT2vkbB0bSe-21" target="A9f6wP4NNAT2vkbB0bSe-32" edge="1">
          <mxGeometry width="50" height="50" relative="1" as="geometry">
            <mxPoint x="480" y="460" as="sourcePoint" />
            <mxPoint x="480" y="380" as="targetPoint" />
          </mxGeometry>
        </mxCell>
        <mxCell id="JjDiljl0blwQCyaUuijC-32" value="" style="endArrow=none;dashed=1;html=1;strokeWidth=5;rounded=0;exitX=0.5;exitY=0;exitDx=0;exitDy=0;fillColor=#dae8fc;strokeColor=#000000;entryX=0.5;entryY=1;entryDx=0;entryDy=0;fontSize=28;fontFamily=Times New Roman;" parent="1" source="A9f6wP4NNAT2vkbB0bSe-23" target="A9f6wP4NNAT2vkbB0bSe-33" edge="1">
          <mxGeometry width="50" height="50" relative="1" as="geometry">
            <mxPoint x="620" y="460" as="sourcePoint" />
            <mxPoint x="620" y="380" as="targetPoint" />
          </mxGeometry>
        </mxCell>
        <mxCell id="JjDiljl0blwQCyaUuijC-34" value="" style="endArrow=none;dashed=1;html=1;strokeWidth=5;rounded=0;exitX=0.5;exitY=0;exitDx=0;exitDy=0;entryX=0.5;entryY=1;entryDx=0;entryDy=0;fillColor=#dae8fc;strokeColor=#000000;fontSize=28;fontFamily=Times New Roman;" parent="1" source="A9f6wP4NNAT2vkbB0bSe-28" target="A9f6wP4NNAT2vkbB0bSe-12" edge="1">
          <mxGeometry width="50" height="50" relative="1" as="geometry">
            <mxPoint x="480" y="280" as="sourcePoint" />
            <mxPoint x="480" y="180" as="targetPoint" />
          </mxGeometry>
        </mxCell>
        <mxCell id="JjDiljl0blwQCyaUuijC-35" value="" style="endArrow=none;dashed=1;html=1;strokeWidth=5;rounded=0;entryX=0.5;entryY=1;entryDx=0;entryDy=0;fillColor=#dae8fc;strokeColor=#FF3333;exitX=0.5;exitY=0;exitDx=0;exitDy=0;fontSize=28;fontFamily=Times New Roman;" parent="1" source="A9f6wP4NNAT2vkbB0bSe-27" target="A9f6wP4NNAT2vkbB0bSe-10" edge="1">
          <mxGeometry width="50" height="50" relative="1" as="geometry">
            <mxPoint x="341.53846153846166" y="280" as="sourcePoint" />
            <mxPoint x="339.9999999999999" y="180" as="targetPoint" />
          </mxGeometry>
        </mxCell>
        <mxCell id="JjDiljl0blwQCyaUuijC-36" value="" style="endArrow=none;dashed=1;html=1;strokeWidth=5;rounded=0;exitX=0.5;exitY=0;exitDx=0;exitDy=0;entryX=0.5;entryY=1;entryDx=0;entryDy=0;fillColor=#dae8fc;strokeColor=#000000;fontSize=28;fontFamily=Times New Roman;" parent="1" source="A9f6wP4NNAT2vkbB0bSe-25" target="JjDiljl0blwQCyaUuijC-2" edge="1">
          <mxGeometry width="50" height="50" relative="1" as="geometry">
            <mxPoint x="199.53999999999996" y="276.55999999999995" as="sourcePoint" />
            <mxPoint x="350" y="170" as="targetPoint" />
          </mxGeometry>
        </mxCell>
        <mxCell id="JjDiljl0blwQCyaUuijC-37" value="" style="endArrow=none;html=1;rounded=0;exitX=0.5;exitY=0;exitDx=0;exitDy=0;entryX=0.5;entryY=1;entryDx=0;entryDy=0;strokeWidth=5;fillColor=#dae8fc;strokeColor=#FF3333;fontSize=28;fontFamily=Times New Roman;" parent="1" source="A9f6wP4NNAT2vkbB0bSe-25" target="A9f6wP4NNAT2vkbB0bSe-10" edge="1">
          <mxGeometry width="50" height="50" relative="1" as="geometry">
            <mxPoint x="240" y="280" as="sourcePoint" />
            <mxPoint x="359.9999999999999" y="180" as="targetPoint" />
          </mxGeometry>
        </mxCell>
        <mxCell id="JjDiljl0blwQCyaUuijC-38" value="" style="endArrow=none;html=1;rounded=0;exitX=0.5;exitY=1;exitDx=0;exitDy=0;entryX=0.5;entryY=0;entryDx=0;entryDy=0;strokeWidth=5;fillColor=#dae8fc;strokeColor=#000000;fontSize=28;fontFamily=Times New Roman;" parent="1" source="A9f6wP4NNAT2vkbB0bSe-35" target="A9f6wP4NNAT2vkbB0bSe-19" edge="1">
          <mxGeometry width="50" height="50" relative="1" as="geometry">
            <mxPoint x="240" y="380" as="sourcePoint" />
            <mxPoint x="360" y="460" as="targetPoint" />
          </mxGeometry>
        </mxCell>
        <mxCell id="JjDiljl0blwQCyaUuijC-39" value="" style="endArrow=none;html=1;rounded=0;entryX=0.5;entryY=1;entryDx=0;entryDy=0;strokeWidth=5;fillColor=#dae8fc;strokeColor=#000000;exitX=0.5;exitY=0;exitDx=0;exitDy=0;fontSize=28;fontFamily=Times New Roman;" parent="1" source="A9f6wP4NNAT2vkbB0bSe-26" target="A9f6wP4NNAT2vkbB0bSe-12" edge="1">
          <mxGeometry width="50" height="50" relative="1" as="geometry">
            <mxPoint x="360" y="280" as="sourcePoint" />
            <mxPoint x="480" y="180" as="targetPoint" />
          </mxGeometry>
        </mxCell>
        <mxCell id="JjDiljl0blwQCyaUuijC-40" value="" style="endArrow=none;html=1;rounded=0;exitX=0.5;exitY=0;exitDx=0;exitDy=0;entryX=0.5;entryY=1;entryDx=0;entryDy=0;strokeWidth=5;fillColor=#dae8fc;strokeColor=#000000;fontSize=28;fontFamily=Times New Roman;" parent="1" source="A9f6wP4NNAT2vkbB0bSe-29" target="A9f6wP4NNAT2vkbB0bSe-13" edge="1">
          <mxGeometry width="50" height="50" relative="1" as="geometry">
            <mxPoint x="480" y="280" as="sourcePoint" />
            <mxPoint x="600" y="180" as="targetPoint" />
          </mxGeometry>
        </mxCell>
        <mxCell id="JjDiljl0blwQCyaUuijC-41" value="" style="endArrow=none;html=1;rounded=0;exitX=0.5;exitY=1;exitDx=0;exitDy=0;entryX=0.5;entryY=0;entryDx=0;entryDy=0;strokeWidth=5;fillColor=#dae8fc;strokeColor=#000000;fontSize=28;fontFamily=Times New Roman;" parent="1" source="A9f6wP4NNAT2vkbB0bSe-28" target="A9f6wP4NNAT2vkbB0bSe-23" edge="1">
          <mxGeometry width="50" height="50" relative="1" as="geometry">
            <mxPoint x="480" y="380" as="sourcePoint" />
            <mxPoint x="600" y="460" as="targetPoint" />
          </mxGeometry>
        </mxCell>
        <mxCell id="JjDiljl0blwQCyaUuijC-42" value="" style="endArrow=none;html=1;rounded=0;exitX=0.5;exitY=1;exitDx=0;exitDy=0;entryX=0.5;entryY=0;entryDx=0;entryDy=0;strokeWidth=5;fillColor=#dae8fc;strokeColor=#FF3333;fontSize=28;fontFamily=Times New Roman;" parent="1" source="A9f6wP4NNAT2vkbB0bSe-26" target="A9f6wP4NNAT2vkbB0bSe-21" edge="1">
          <mxGeometry width="50" height="50" relative="1" as="geometry">
            <mxPoint x="360" y="380" as="sourcePoint" />
            <mxPoint x="480" y="460" as="targetPoint" />
          </mxGeometry>
        </mxCell>
        <mxCell id="JjDiljl0blwQCyaUuijC-43" value="" style="endArrow=none;html=1;rounded=0;exitX=0.5;exitY=0;exitDx=0;exitDy=0;entryX=0.5;entryY=1;entryDx=0;entryDy=0;strokeWidth=5;fillColor=#dae8fc;strokeColor=#000000;fontSize=28;fontFamily=Times New Roman;" parent="1" source="A9f6wP4NNAT2vkbB0bSe-31" target="JjDiljl0blwQCyaUuijC-2" edge="1">
          <mxGeometry width="50" height="50" relative="1" as="geometry">
            <mxPoint x="600" y="280" as="sourcePoint" />
            <mxPoint x="550" y="370" as="targetPoint" />
          </mxGeometry>
        </mxCell>
        <mxCell id="JjDiljl0blwQCyaUuijC-44" value="" style="endArrow=none;html=1;rounded=0;exitX=0.5;exitY=1;exitDx=0;exitDy=0;entryX=0.5;entryY=0;entryDx=0;entryDy=0;strokeWidth=5;fillColor=#dae8fc;strokeColor=#000000;fontSize=28;fontFamily=Times New Roman;" parent="1" source="A9f6wP4NNAT2vkbB0bSe-30" target="A9f6wP4NNAT2vkbB0bSe-17" edge="1">
          <mxGeometry width="50" height="50" relative="1" as="geometry">
            <mxPoint x="600" y="380" as="sourcePoint" />
            <mxPoint x="240" y="460" as="targetPoint" />
          </mxGeometry>
        </mxCell>
        <mxCell id="tdBAylMAY1_QYxIaaEEM-36" value="" style="endArrow=none;dashed=1;html=1;strokeWidth=5;rounded=0;exitX=0.5;exitY=0;exitDx=0;exitDy=0;entryX=0.5;entryY=1;entryDx=0;entryDy=0;fillColor=#dae8fc;strokeColor=#000000;fontSize=28;fontFamily=Times New Roman;" parent="1" source="A9f6wP4NNAT2vkbB0bSe-30" target="A9f6wP4NNAT2vkbB0bSe-14" edge="1">
          <mxGeometry width="50" height="50" relative="1" as="geometry">
            <mxPoint x="620" y="280" as="sourcePoint" />
            <mxPoint x="620" y="180" as="targetPoint" />
          </mxGeometry>
        </mxCell>
        <mxCell id="A9f6wP4NNAT2vkbB0bSe-9" value="&lt;font style=&quot;font-size: 40px;&quot;&gt;$$S_2^3$$&lt;/font&gt;" style="rounded=0;whiteSpace=wrap;html=1;strokeWidth=3;fillColor=#dae8fc;strokeColor=#FFFFFF;fontSize=40;fontFamily=Times New Roman;" parent="1" vertex="1">
          <mxGeometry x="300" y="80" width="120" height="130" as="geometry" />
        </mxCell>
        <mxCell id="A9f6wP4NNAT2vkbB0bSe-10" value="&lt;font style=&quot;font-size: 40px;&quot;&gt;4&lt;/font&gt;" style="rounded=0;whiteSpace=wrap;html=1;strokeWidth=3;fillColor=#fff2cc;strokeColor=#FFFFFF;fontSize=40;fontFamily=Times New Roman;" parent="1" vertex="1">
          <mxGeometry x="338.36" y="171.89" width="40" height="40" as="geometry" />
        </mxCell>
        <mxCell id="A9f6wP4NNAT2vkbB0bSe-11" value="&lt;font style=&quot;font-size: 40px;&quot;&gt;$$S_3^3$$&lt;/font&gt;" style="rounded=0;whiteSpace=wrap;html=1;strokeWidth=3;fillColor=#dae8fc;strokeColor=#FFFFFF;fontSize=40;fontFamily=Times New Roman;" parent="1" vertex="1">
          <mxGeometry x="480" y="80" width="120" height="130" as="geometry" />
        </mxCell>
        <mxCell id="A9f6wP4NNAT2vkbB0bSe-12" value="&lt;font style=&quot;font-size: 40px;&quot;&gt;4&lt;/font&gt;" style="rounded=0;whiteSpace=wrap;html=1;strokeWidth=3;fillColor=#fff2cc;strokeColor=#FFFFFF;fontSize=40;fontFamily=Times New Roman;" parent="1" vertex="1">
          <mxGeometry x="520.11" y="168.89" width="40" height="40" as="geometry" />
        </mxCell>
        <mxCell id="A9f6wP4NNAT2vkbB0bSe-13" value="&lt;font style=&quot;font-size: 40px;&quot;&gt;$$S_4^3$$&lt;/font&gt;" style="rounded=0;whiteSpace=wrap;html=1;strokeWidth=3;fillColor=#dae8fc;strokeColor=#FFFFFF;fontSize=40;fontFamily=Times New Roman;" parent="1" vertex="1">
          <mxGeometry x="660" y="80" width="120" height="130" as="geometry" />
        </mxCell>
        <mxCell id="A9f6wP4NNAT2vkbB0bSe-14" value="&lt;font style=&quot;font-size: 40px;&quot;&gt;4&lt;/font&gt;" style="rounded=0;whiteSpace=wrap;html=1;strokeWidth=3;fillColor=#fff2cc;strokeColor=#FFFFFF;fontSize=40;fontFamily=Times New Roman;" parent="1" vertex="1">
          <mxGeometry x="700" y="170.89" width="40" height="40" as="geometry" />
        </mxCell>
        <mxCell id="A9f6wP4NNAT2vkbB0bSe-16" value="&lt;font style=&quot;font-size: 40px;&quot;&gt;$$S_1^1$$&lt;/font&gt;" style="rounded=0;whiteSpace=wrap;html=1;strokeWidth=3;fillColor=#dae8fc;strokeColor=#FFFFFF;fontSize=40;fontFamily=Times New Roman;" parent="1" vertex="1">
          <mxGeometry x="120" y="440" width="120" height="130" as="geometry" />
        </mxCell>
        <mxCell id="A9f6wP4NNAT2vkbB0bSe-17" value="&lt;font style=&quot;font-size: 40px;&quot;&gt;&lt;span style=&quot;font-size: 40px;&quot;&gt;1&lt;/span&gt;&lt;/font&gt;" style="rounded=0;whiteSpace=wrap;html=1;strokeWidth=3;fillColor=#fff2cc;strokeColor=#FFFFFF;fontSize=40;fontFamily=Times New Roman;" parent="1" vertex="1">
          <mxGeometry x="160" y="440" width="40" height="40" as="geometry" />
        </mxCell>
        <mxCell id="A9f6wP4NNAT2vkbB0bSe-18" value="&lt;font style=&quot;font-size: 40px;&quot;&gt;$$S_2^1$$&lt;/font&gt;" style="rounded=0;whiteSpace=wrap;html=1;strokeWidth=3;fillColor=#dae8fc;strokeColor=#FFFFFF;fontSize=40;fontFamily=Times New Roman;" parent="1" vertex="1">
          <mxGeometry x="300" y="440" width="120" height="130" as="geometry" />
        </mxCell>
        <mxCell id="A9f6wP4NNAT2vkbB0bSe-19" value="&lt;font style=&quot;font-size: 40px;&quot;&gt;&lt;span style=&quot;font-size: 40px;&quot;&gt;1&lt;/span&gt;&lt;/font&gt;" style="rounded=0;whiteSpace=wrap;html=1;strokeWidth=3;fillColor=#fff2cc;strokeColor=#FFFFFF;fontSize=40;fontFamily=Times New Roman;" parent="1" vertex="1">
          <mxGeometry x="339" y="440" width="40" height="40" as="geometry" />
        </mxCell>
        <mxCell id="A9f6wP4NNAT2vkbB0bSe-20" value="&lt;font style=&quot;font-size: 40px;&quot;&gt;$$S_3^1$$&lt;/font&gt;" style="rounded=0;whiteSpace=wrap;html=1;strokeWidth=3;fillColor=#dae8fc;strokeColor=#FFFFFF;fontSize=40;fontFamily=Times New Roman;" parent="1" vertex="1">
          <mxGeometry x="480" y="440" width="120" height="130" as="geometry" />
        </mxCell>
        <mxCell id="A9f6wP4NNAT2vkbB0bSe-21" value="&lt;font style=&quot;font-size: 40px;&quot;&gt;&lt;span style=&quot;font-size: 40px;&quot;&gt;1&lt;/span&gt;&lt;/font&gt;" style="rounded=0;whiteSpace=wrap;html=1;strokeWidth=3;fillColor=#fff2cc;strokeColor=#FFFFFF;fontSize=40;fontFamily=Times New Roman;" parent="1" vertex="1">
          <mxGeometry x="520" y="440" width="40" height="40" as="geometry" />
        </mxCell>
        <mxCell id="A9f6wP4NNAT2vkbB0bSe-22" value="&lt;font style=&quot;font-size: 40px;&quot;&gt;$$S_4^1$$&lt;/font&gt;" style="rounded=0;whiteSpace=wrap;html=1;strokeWidth=3;fillColor=#dae8fc;strokeColor=#FFFFFF;fontSize=40;fontFamily=Times New Roman;" parent="1" vertex="1">
          <mxGeometry x="660" y="440" width="120" height="130" as="geometry" />
        </mxCell>
        <mxCell id="A9f6wP4NNAT2vkbB0bSe-23" value="&lt;font style=&quot;font-size: 40px;&quot;&gt;1&lt;/font&gt;" style="rounded=0;whiteSpace=wrap;html=1;strokeWidth=3;fillColor=#fff2cc;strokeColor=#FFFFFF;fontSize=40;fontFamily=Times New Roman;" parent="1" vertex="1">
          <mxGeometry x="700" y="440" width="40" height="40" as="geometry" />
        </mxCell>
        <mxCell id="A9f6wP4NNAT2vkbB0bSe-24" value="&lt;font style=&quot;font-size: 40px;&quot;&gt;$$S_1^2$$&lt;/font&gt;" style="rounded=0;whiteSpace=wrap;html=1;strokeWidth=3;fillColor=#dae8fc;strokeColor=#FFFFFF;fontSize=40;fontFamily=Times New Roman;" parent="1" vertex="1">
          <mxGeometry x="120" y="260" width="120" height="130" as="geometry" />
        </mxCell>
        <mxCell id="A9f6wP4NNAT2vkbB0bSe-25" value="&lt;font style=&quot;font-size: 40px;&quot;&gt;&lt;span style=&quot;font-size: 40px;&quot;&gt;3&lt;/span&gt;&lt;/font&gt;" style="rounded=0;whiteSpace=wrap;html=1;strokeWidth=3;fillColor=#fff2cc;strokeColor=#FFFFFF;fontSize=40;fontFamily=Times New Roman;" parent="1" vertex="1">
          <mxGeometry x="160" y="260" width="40" height="40" as="geometry" />
        </mxCell>
        <mxCell id="A9f6wP4NNAT2vkbB0bSe-26" value="&lt;font style=&quot;font-size: 40px;&quot;&gt;$$S_2^2$$&lt;/font&gt;" style="rounded=0;whiteSpace=wrap;html=1;strokeWidth=3;fillColor=#dae8fc;strokeColor=#FFFFFF;fontSize=40;fontFamily=Times New Roman;" parent="1" vertex="1">
          <mxGeometry x="300" y="260" width="120" height="130" as="geometry" />
        </mxCell>
        <mxCell id="A9f6wP4NNAT2vkbB0bSe-27" value="&lt;font style=&quot;font-size: 40px;&quot;&gt;&lt;span style=&quot;font-size: 40px;&quot;&gt;3&lt;/span&gt;&lt;/font&gt;" style="rounded=0;whiteSpace=wrap;html=1;strokeWidth=3;fillColor=#fff2cc;strokeColor=#FFFFFF;fontSize=40;fontFamily=Times New Roman;" parent="1" vertex="1">
          <mxGeometry x="338.36" y="260" width="40" height="40" as="geometry" />
        </mxCell>
        <mxCell id="A9f6wP4NNAT2vkbB0bSe-28" value="&lt;font style=&quot;font-size: 40px;&quot;&gt;$$S_3^2$$&lt;/font&gt;" style="rounded=0;whiteSpace=wrap;html=1;strokeWidth=3;fillColor=#dae8fc;strokeColor=#FFFFFF;fontSize=40;fontFamily=Times New Roman;" parent="1" vertex="1">
          <mxGeometry x="480" y="260" width="120" height="130" as="geometry" />
        </mxCell>
        <mxCell id="A9f6wP4NNAT2vkbB0bSe-29" value="&lt;font style=&quot;font-size: 40px;&quot;&gt;&lt;span style=&quot;font-size: 40px;&quot;&gt;3&lt;/span&gt;&lt;/font&gt;" style="rounded=0;whiteSpace=wrap;html=1;strokeWidth=3;fillColor=#fff2cc;strokeColor=#FFFFFF;fontSize=40;fontFamily=Times New Roman;" parent="1" vertex="1">
          <mxGeometry x="520" y="260" width="40" height="40" as="geometry" />
        </mxCell>
        <mxCell id="A9f6wP4NNAT2vkbB0bSe-30" value="&lt;font style=&quot;font-size: 40px;&quot;&gt;$$S_4^2$$&lt;/font&gt;" style="rounded=0;whiteSpace=wrap;html=1;strokeWidth=3;fillColor=#dae8fc;strokeColor=#FFFFFF;fontSize=40;fontFamily=Times New Roman;" parent="1" vertex="1">
          <mxGeometry x="660" y="260" width="120" height="130" as="geometry" />
        </mxCell>
        <mxCell id="A9f6wP4NNAT2vkbB0bSe-31" value="&lt;font style=&quot;font-size: 40px;&quot;&gt;3&lt;/font&gt;" style="rounded=0;whiteSpace=wrap;html=1;strokeWidth=3;fillColor=#fff2cc;strokeColor=#FFFFFF;fontSize=40;fontFamily=Times New Roman;" parent="1" vertex="1">
          <mxGeometry x="700" y="260" width="40" height="40" as="geometry" />
        </mxCell>
        <mxCell id="A9f6wP4NNAT2vkbB0bSe-32" value="&lt;font style=&quot;font-size: 40px;&quot;&gt;&lt;span style=&quot;font-size: 40px;&quot;&gt;2&lt;/span&gt;&lt;/font&gt;" style="rounded=0;whiteSpace=wrap;html=1;strokeWidth=3;fillColor=#fff2cc;strokeColor=#FFFFFF;fontSize=40;fontFamily=Times New Roman;" parent="1" vertex="1">
          <mxGeometry x="520.11" y="350" width="40" height="40" as="geometry" />
        </mxCell>
        <mxCell id="A9f6wP4NNAT2vkbB0bSe-33" value="&lt;font style=&quot;font-size: 40px;&quot;&gt;2&lt;/font&gt;" style="rounded=0;whiteSpace=wrap;html=1;strokeWidth=3;fillColor=#fff2cc;strokeColor=#FFFFFF;fontSize=40;fontFamily=Times New Roman;" parent="1" vertex="1">
          <mxGeometry x="700" y="350" width="40" height="40" as="geometry" />
        </mxCell>
        <mxCell id="A9f6wP4NNAT2vkbB0bSe-34" value="&lt;font style=&quot;font-size: 40px;&quot;&gt;&lt;span style=&quot;font-size: 40px;&quot;&gt;2&lt;/span&gt;&lt;/font&gt;" style="rounded=0;whiteSpace=wrap;html=1;strokeWidth=3;fillColor=#fff2cc;strokeColor=#FFFFFF;fontSize=40;fontFamily=Times New Roman;" parent="1" vertex="1">
          <mxGeometry x="338.36" y="350" width="40" height="40" as="geometry" />
        </mxCell>
        <mxCell id="A9f6wP4NNAT2vkbB0bSe-35" value="&lt;font style=&quot;font-size: 40px;&quot;&gt;&lt;span style=&quot;font-size: 40px;&quot;&gt;2&lt;/span&gt;&lt;/font&gt;" style="rounded=0;whiteSpace=wrap;html=1;strokeWidth=3;fillColor=#fff2cc;strokeColor=#FFFFFF;fontSize=40;fontFamily=Times New Roman;" parent="1" vertex="1">
          <mxGeometry x="160" y="350" width="40" height="40" as="geometry" />
        </mxCell>
        <mxCell id="K_pVn9FSK5HUyFnE74xe-3" value="&lt;span style=&quot;color: rgb(0, 0, 0); font-size: 40px; font-style: normal; font-weight: 400; letter-spacing: normal; text-align: center; text-indent: 0px; text-transform: none; word-spacing: 0px; background-color: rgb(255, 255, 255); display: inline; float: none;&quot;&gt;$$S_1$$&lt;br style=&quot;font-size: 40px;&quot;&gt;&lt;br style=&quot;font-size: 40px;&quot;&gt;&lt;/span&gt;" style="text;whiteSpace=wrap;html=1;fontSize=40;fontFamily=Times New Roman;" parent="1" vertex="1">
          <mxGeometry x="160" y="520" width="70" height="80" as="geometry" />
        </mxCell>
        <mxCell id="K_pVn9FSK5HUyFnE74xe-5" value="&lt;span style=&quot;color: rgb(0, 0, 0); font-size: 40px; font-style: normal; font-weight: 400; letter-spacing: normal; text-align: center; text-indent: 0px; text-transform: none; word-spacing: 0px; background-color: rgb(255, 255, 255); display: inline; float: none;&quot;&gt;$$S_2$$&lt;br style=&quot;font-size: 40px;&quot;&gt;&lt;br style=&quot;font-size: 40px;&quot;&gt;&lt;/span&gt;" style="text;whiteSpace=wrap;html=1;fontSize=40;fontFamily=Times New Roman;" parent="1" vertex="1">
          <mxGeometry x="339" y="520" width="70" height="80" as="geometry" />
        </mxCell>
        <mxCell id="K_pVn9FSK5HUyFnE74xe-8" value="&lt;span style=&quot;color: rgb(0, 0, 0); font-size: 40px; font-style: normal; font-weight: 400; letter-spacing: normal; text-align: center; text-indent: 0px; text-transform: none; word-spacing: 0px; background-color: rgb(255, 255, 255); display: inline; float: none;&quot;&gt;$$S_3$$&lt;br style=&quot;font-size: 40px;&quot;&gt;&lt;br style=&quot;font-size: 40px;&quot;&gt;&lt;/span&gt;" style="text;whiteSpace=wrap;html=1;fontSize=40;fontFamily=Times New Roman;" parent="1" vertex="1">
          <mxGeometry x="520.11" y="520" width="70" height="80" as="geometry" />
        </mxCell>
        <mxCell id="K_pVn9FSK5HUyFnE74xe-10" value="&lt;span style=&quot;color: rgb(0, 0, 0); font-size: 40px; font-style: normal; font-weight: 400; letter-spacing: normal; text-align: center; text-indent: 0px; text-transform: none; word-spacing: 0px; background-color: rgb(255, 255, 255); display: inline; float: none;&quot;&gt;$$S_4$$&lt;br style=&quot;font-size: 40px;&quot;&gt;&lt;br style=&quot;font-size: 40px;&quot;&gt;&lt;/span&gt;" style="text;whiteSpace=wrap;html=1;fontSize=40;fontFamily=Times New Roman;" parent="1" vertex="1">
          <mxGeometry x="700.36" y="520" width="70" height="80" as="geometry" />
        </mxCell>
        <mxCell id="K_pVn9FSK5HUyFnE74xe-139" value="" style="rounded=0;whiteSpace=wrap;html=1;dashed=1;fillColor=#f5f5f5;strokeColor=#666666;fontColor=#333333;strokeWidth=3;" parent="1" vertex="1">
          <mxGeometry x="329" y="-150" width="110" height="80" as="geometry" />
        </mxCell>
        <mxCell id="K_pVn9FSK5HUyFnE74xe-140" value="" style="verticalLabelPosition=bottom;sketch=0;aspect=fixed;html=1;verticalAlign=top;strokeColor=none;align=center;outlineConnect=0;shape=mxgraph.citrix.switch;fontSize=24;strokeWidth=1;" parent="1" vertex="1">
          <mxGeometry x="350.07" y="-129.97000000000003" width="68.58" height="30.93" as="geometry" />
        </mxCell>
        <mxCell id="K_pVn9FSK5HUyFnE74xe-141" value="&lt;font style=&quot;font-size: 30px&quot;&gt;1&lt;/font&gt;" style="rounded=0;whiteSpace=wrap;html=1;fontFamily=Times New Roman;fontSize=24;fontColor=#000000;strokeWidth=1;fillColor=none;dashed=1;" parent="1" vertex="1">
          <mxGeometry x="329.36" y="-100" width="30" height="30" as="geometry" />
        </mxCell>
        <mxCell id="K_pVn9FSK5HUyFnE74xe-142" value="&lt;font style=&quot;font-size: 30px&quot;&gt;2&lt;/font&gt;" style="rounded=0;whiteSpace=wrap;html=1;fontFamily=Times New Roman;fontSize=24;fontColor=#000000;strokeWidth=1;dashed=1;fillColor=none;" parent="1" vertex="1">
          <mxGeometry x="329.36" y="-150" width="30" height="30" as="geometry" />
        </mxCell>
        <mxCell id="K_pVn9FSK5HUyFnE74xe-143" value="3" style="rounded=0;whiteSpace=wrap;html=1;fontFamily=Times New Roman;fontSize=30;fontColor=#000000;strokeWidth=1;fillColor=none;dashed=1;" parent="1" vertex="1">
          <mxGeometry x="409" y="-150" width="30" height="30" as="geometry" />
        </mxCell>
        <mxCell id="K_pVn9FSK5HUyFnE74xe-144" value="4" style="rounded=0;whiteSpace=wrap;html=1;fontFamily=Times New Roman;fontSize=30;fontColor=#000000;strokeWidth=1;fillColor=none;dashed=1;" parent="1" vertex="1">
          <mxGeometry x="408.65" y="-100" width="30" height="30" as="geometry" />
        </mxCell>
        <mxCell id="K_pVn9FSK5HUyFnE74xe-145" value="&lt;font style=&quot;font-size: 30px&quot;&gt;$$S_1$$&lt;/font&gt;" style="text;html=1;strokeColor=none;fillColor=none;align=center;verticalAlign=middle;whiteSpace=wrap;rounded=0;fontFamily=Times New Roman;fontSize=24;fontColor=#000000;" parent="1" vertex="1">
          <mxGeometry x="357.65" y="-100" width="60" height="30" as="geometry" />
        </mxCell>
        <mxCell id="K_pVn9FSK5HUyFnE74xe-146" value="" style="rounded=0;whiteSpace=wrap;html=1;dashed=1;fillColor=#f5f5f5;strokeColor=#666666;fontColor=#333333;strokeWidth=3;" parent="1" vertex="1">
          <mxGeometry x="480" y="-250" width="100" height="80" as="geometry" />
        </mxCell>
        <mxCell id="K_pVn9FSK5HUyFnE74xe-147" value="" style="verticalLabelPosition=bottom;sketch=0;aspect=fixed;html=1;verticalAlign=top;strokeColor=none;align=center;outlineConnect=0;shape=mxgraph.citrix.switch;fontSize=24;strokeWidth=1;" parent="1" vertex="1">
          <mxGeometry x="495.62" y="-230.97000000000003" width="68.58" height="30.93" as="geometry" />
        </mxCell>
        <mxCell id="K_pVn9FSK5HUyFnE74xe-148" value="1" style="rounded=0;whiteSpace=wrap;html=1;fontFamily=Times New Roman;fontSize=30;fontColor=#000000;strokeWidth=1;fillColor=none;dashed=1;" parent="1" vertex="1">
          <mxGeometry x="479.93000000000006" y="-249.97" width="30" height="30" as="geometry" />
        </mxCell>
        <mxCell id="K_pVn9FSK5HUyFnE74xe-149" value="4" style="rounded=0;whiteSpace=wrap;html=1;fontFamily=Times New Roman;fontSize=30;fontColor=#000000;strokeWidth=1;fillColor=none;dashed=1;" parent="1" vertex="1">
          <mxGeometry x="479.93000000000006" y="-200" width="30" height="30" as="geometry" />
        </mxCell>
        <mxCell id="K_pVn9FSK5HUyFnE74xe-150" value="3" style="rounded=0;whiteSpace=wrap;html=1;fontFamily=Times New Roman;fontSize=30;fontColor=#000000;strokeWidth=1;fillColor=none;dashed=1;" parent="1" vertex="1">
          <mxGeometry x="550.2" y="-200" width="30" height="30" as="geometry" />
        </mxCell>
        <mxCell id="K_pVn9FSK5HUyFnE74xe-151" value="2" style="rounded=0;whiteSpace=wrap;html=1;fontFamily=Times New Roman;fontSize=30;fontColor=#000000;strokeWidth=1;fillColor=none;dashed=1;" parent="1" vertex="1">
          <mxGeometry x="550.11" y="-250.97" width="30" height="30" as="geometry" />
        </mxCell>
        <mxCell id="K_pVn9FSK5HUyFnE74xe-152" value="$$S_2$$" style="text;html=1;strokeColor=none;fillColor=none;align=center;verticalAlign=middle;whiteSpace=wrap;rounded=0;fontFamily=Times New Roman;fontSize=30;fontColor=#000000;" parent="1" vertex="1">
          <mxGeometry x="501.9100000000001" y="-200" width="60" height="30" as="geometry" />
        </mxCell>
        <mxCell id="K_pVn9FSK5HUyFnE74xe-153" value="" style="rounded=0;whiteSpace=wrap;html=1;dashed=1;fillColor=#f5f5f5;strokeColor=#666666;fontColor=#333333;strokeWidth=3;" parent="1" vertex="1">
          <mxGeometry x="478.91" y="-50" width="110" height="80" as="geometry" />
        </mxCell>
        <mxCell id="K_pVn9FSK5HUyFnE74xe-154" value="" style="verticalLabelPosition=bottom;sketch=0;aspect=fixed;html=1;verticalAlign=top;strokeColor=none;align=center;outlineConnect=0;shape=mxgraph.citrix.switch;fontSize=24;strokeWidth=1;" parent="1" vertex="1">
          <mxGeometry x="501.53" y="-27.97" width="68.58" height="30.93" as="geometry" />
        </mxCell>
        <mxCell id="K_pVn9FSK5HUyFnE74xe-155" value="3" style="rounded=0;whiteSpace=wrap;html=1;fontFamily=Times New Roman;fontSize=30;fontColor=#000000;strokeWidth=1;fillColor=none;dashed=1;" parent="1" vertex="1">
          <mxGeometry x="478.90999999999997" y="-50" width="30" height="30" as="geometry" />
        </mxCell>
        <mxCell id="K_pVn9FSK5HUyFnE74xe-156" value="2" style="rounded=0;whiteSpace=wrap;html=1;fontFamily=Times New Roman;fontSize=30;fontColor=#000000;strokeWidth=1;fillColor=none;dashed=1;" parent="1" vertex="1">
          <mxGeometry x="478.90999999999997" width="30" height="30" as="geometry" />
        </mxCell>
        <mxCell id="K_pVn9FSK5HUyFnE74xe-157" value="1" style="rounded=0;whiteSpace=wrap;html=1;fontFamily=Times New Roman;fontSize=30;fontColor=#000000;strokeWidth=1;fillColor=none;dashed=1;" parent="1" vertex="1">
          <mxGeometry x="558.9100000000001" width="30" height="30" as="geometry" />
        </mxCell>
        <mxCell id="K_pVn9FSK5HUyFnE74xe-158" value="4" style="rounded=0;whiteSpace=wrap;html=1;fontFamily=Times New Roman;fontSize=30;fontColor=#000000;strokeWidth=1;fillColor=none;dashed=1;" parent="1" vertex="1">
          <mxGeometry x="560.1100000000001" y="-50" width="30" height="30" as="geometry" />
        </mxCell>
        <mxCell id="K_pVn9FSK5HUyFnE74xe-159" value="$$S_4$$" style="text;html=1;strokeColor=none;fillColor=none;align=center;verticalAlign=middle;whiteSpace=wrap;rounded=0;fontFamily=Times New Roman;fontSize=30;fontColor=#000000;" parent="1" vertex="1">
          <mxGeometry x="505.93000000000006" width="60" height="30" as="geometry" />
        </mxCell>
        <mxCell id="K_pVn9FSK5HUyFnE74xe-160" value="" style="rounded=0;whiteSpace=wrap;html=1;dashed=1;fillColor=#f5f5f5;strokeColor=#666666;fontColor=#333333;strokeWidth=3;" parent="1" vertex="1">
          <mxGeometry x="620" y="-149.51" width="110" height="80" as="geometry" />
        </mxCell>
        <mxCell id="K_pVn9FSK5HUyFnE74xe-161" value="" style="verticalLabelPosition=bottom;sketch=0;aspect=fixed;html=1;verticalAlign=top;strokeColor=none;align=center;outlineConnect=0;shape=mxgraph.citrix.switch;fontSize=24;strokeWidth=1;" parent="1" vertex="1">
          <mxGeometry x="640.0699999999999" y="-130.48000000000002" width="68.58" height="30.93" as="geometry" />
        </mxCell>
        <mxCell id="K_pVn9FSK5HUyFnE74xe-162" value="3" style="rounded=0;whiteSpace=wrap;html=1;fontFamily=Times New Roman;fontSize=30;fontColor=#000000;strokeWidth=1;fillColor=none;dashed=1;" parent="1" vertex="1">
          <mxGeometry x="620.36" y="-99.50999999999999" width="30" height="30" as="geometry" />
        </mxCell>
        <mxCell id="K_pVn9FSK5HUyFnE74xe-163" value="4" style="rounded=0;whiteSpace=wrap;html=1;fontFamily=Times New Roman;fontSize=30;fontColor=#000000;strokeWidth=1;fillColor=none;dashed=1;" parent="1" vertex="1">
          <mxGeometry x="619.36" y="-150.51" width="30" height="30" as="geometry" />
        </mxCell>
        <mxCell id="K_pVn9FSK5HUyFnE74xe-164" value="1" style="rounded=0;whiteSpace=wrap;html=1;fontFamily=Times New Roman;fontSize=30;fontColor=#000000;strokeWidth=1;fillColor=none;dashed=1;" parent="1" vertex="1">
          <mxGeometry x="700.36" y="-149.51" width="30" height="30" as="geometry" />
        </mxCell>
        <mxCell id="K_pVn9FSK5HUyFnE74xe-165" value="2" style="rounded=0;whiteSpace=wrap;html=1;fontFamily=Times New Roman;fontSize=30;fontColor=#000000;strokeWidth=1;fillColor=none;dashed=1;" parent="1" vertex="1">
          <mxGeometry x="700.36" y="-99.50999999999999" width="30" height="30" as="geometry" />
        </mxCell>
        <mxCell id="K_pVn9FSK5HUyFnE74xe-166" value="$$S_3$$" style="text;html=1;strokeColor=none;fillColor=none;align=center;verticalAlign=middle;whiteSpace=wrap;rounded=0;fontFamily=Times New Roman;fontSize=30;fontColor=#000000;" parent="1" vertex="1">
          <mxGeometry x="648.47" y="-100.00999999999999" width="60" height="30" as="geometry" />
        </mxCell>
        <mxCell id="K_pVn9FSK5HUyFnE74xe-167" value="" style="endArrow=none;html=1;rounded=0;exitX=0.5;exitY=0;exitDx=0;exitDy=0;entryX=0;entryY=0.5;entryDx=0;entryDy=0;strokeWidth=4;" parent="1" source="K_pVn9FSK5HUyFnE74xe-142" target="K_pVn9FSK5HUyFnE74xe-148" edge="1">
          <mxGeometry width="50" height="50" relative="1" as="geometry">
            <mxPoint x="560" y="-70" as="sourcePoint" />
            <mxPoint x="430" y="-230" as="targetPoint" />
          </mxGeometry>
        </mxCell>
        <mxCell id="K_pVn9FSK5HUyFnE74xe-168" value="" style="endArrow=none;html=1;rounded=0;exitX=0.5;exitY=0;exitDx=0;exitDy=0;entryX=0;entryY=0.5;entryDx=0;entryDy=0;strokeWidth=4;strokeColor=#FF3333;" parent="1" source="K_pVn9FSK5HUyFnE74xe-143" target="K_pVn9FSK5HUyFnE74xe-149" edge="1">
          <mxGeometry width="50" height="50" relative="1" as="geometry">
            <mxPoint x="319.3599999999999" y="-125" as="sourcePoint" />
            <mxPoint x="463.02" y="-215" as="targetPoint" />
          </mxGeometry>
        </mxCell>
        <mxCell id="K_pVn9FSK5HUyFnE74xe-169" value="" style="endArrow=none;html=1;rounded=0;exitX=1;exitY=0.5;exitDx=0;exitDy=0;entryX=0.5;entryY=0;entryDx=0;entryDy=0;strokeWidth=4;" parent="1" source="K_pVn9FSK5HUyFnE74xe-150" target="K_pVn9FSK5HUyFnE74xe-163" edge="1">
          <mxGeometry width="50" height="50" relative="1" as="geometry">
            <mxPoint x="348.3599999999999" y="-125" as="sourcePoint" />
            <mxPoint x="463.02" y="-190" as="targetPoint" />
          </mxGeometry>
        </mxCell>
        <mxCell id="K_pVn9FSK5HUyFnE74xe-170" value="" style="endArrow=none;html=1;rounded=0;exitX=1;exitY=0.5;exitDx=0;exitDy=0;entryX=0.5;entryY=0;entryDx=0;entryDy=0;strokeWidth=4;strokeColor=#FF3333;" parent="1" source="K_pVn9FSK5HUyFnE74xe-151" target="K_pVn9FSK5HUyFnE74xe-164" edge="1">
          <mxGeometry width="50" height="50" relative="1" as="geometry">
            <mxPoint x="358.3599999999999" y="-115" as="sourcePoint" />
            <mxPoint x="473.02" y="-180" as="targetPoint" />
          </mxGeometry>
        </mxCell>
        <mxCell id="K_pVn9FSK5HUyFnE74xe-171" value="" style="endArrow=none;html=1;rounded=0;exitX=0.5;exitY=1;exitDx=0;exitDy=0;entryX=0;entryY=0.5;entryDx=0;entryDy=0;strokeWidth=4;" parent="1" source="K_pVn9FSK5HUyFnE74xe-144" target="K_pVn9FSK5HUyFnE74xe-155" edge="1">
          <mxGeometry width="50" height="50" relative="1" as="geometry">
            <mxPoint x="319.3599999999999" y="22.49000000000001" as="sourcePoint" />
            <mxPoint x="463.02" y="-67.50999999999999" as="targetPoint" />
          </mxGeometry>
        </mxCell>
        <mxCell id="K_pVn9FSK5HUyFnE74xe-172" value="" style="endArrow=none;html=1;rounded=0;exitX=0.5;exitY=1;exitDx=0;exitDy=0;entryX=0;entryY=0.5;entryDx=0;entryDy=0;strokeWidth=4;" parent="1" source="K_pVn9FSK5HUyFnE74xe-141" target="K_pVn9FSK5HUyFnE74xe-156" edge="1">
          <mxGeometry width="50" height="50" relative="1" as="geometry">
            <mxPoint x="348.3600000000001" y="-40" as="sourcePoint" />
            <mxPoint x="460.93000000000006" y="25" as="targetPoint" />
          </mxGeometry>
        </mxCell>
        <mxCell id="K_pVn9FSK5HUyFnE74xe-173" value="" style="endArrow=none;html=1;rounded=0;exitX=0.5;exitY=1;exitDx=0;exitDy=0;entryX=1;entryY=0.5;entryDx=0;entryDy=0;strokeWidth=4;" parent="1" source="K_pVn9FSK5HUyFnE74xe-162" target="K_pVn9FSK5HUyFnE74xe-158" edge="1">
          <mxGeometry width="50" height="50" relative="1" as="geometry">
            <mxPoint x="319.3599999999999" y="-40" as="sourcePoint" />
            <mxPoint x="460.93000000000006" y="50" as="targetPoint" />
          </mxGeometry>
        </mxCell>
        <mxCell id="K_pVn9FSK5HUyFnE74xe-174" value="" style="endArrow=none;html=1;rounded=0;exitX=0.5;exitY=1;exitDx=0;exitDy=0;entryX=1;entryY=0.5;entryDx=0;entryDy=0;strokeWidth=4;" parent="1" source="K_pVn9FSK5HUyFnE74xe-165" target="K_pVn9FSK5HUyFnE74xe-157" edge="1">
          <mxGeometry width="50" height="50" relative="1" as="geometry">
            <mxPoint x="719.3600000000001" y="-37.50999999999999" as="sourcePoint" />
            <mxPoint x="610.9300000000001" y="25" as="targetPoint" />
          </mxGeometry>
        </mxCell>
      </root>
    </mxGraphModel>
  </diagram>
</mxfile>
